<svg width="230" height="97" viewBox="0 0 230 97" fill="none" xmlns="http://www.w3.org/2000/svg">
<path d="M42 95V78.936H0.4V66.264L30.352 2.84H45.648L15.696 66.264H42V41.304H55.568V66.264H64.72V78.936H55.568V95H42ZM114.773 96.92C108.501 96.92 102.954 95.5547 98.133 92.824C93.3117 90.0507 89.5143 86.2533 86.741 81.432C84.0103 76.6107 82.645 71.064 82.645 64.792V33.048C82.645 26.776 84.0103 21.2293 86.741 16.408C89.5143 11.5867 93.3117 7.81066 98.133 5.07999C102.954 2.30666 108.501 0.919998 114.773 0.919998C121.045 0.919998 126.592 2.30666 131.413 5.07999C136.234 7.81066 140.01 11.5867 142.741 16.408C145.514 21.2293 146.901 26.776 146.901 33.048V64.792C146.901 71.064 145.514 76.6107 142.741 81.432C140.01 86.2533 136.234 90.0507 131.413 92.824C126.592 95.5547 121.045 96.92 114.773 96.92ZM114.773 84.12C118.186 84.12 121.28 83.3093 124.053 81.688C126.869 80.024 129.109 77.8053 130.773 75.032C132.437 72.216 133.269 69.08 133.269 65.624V32.088C133.269 28.6747 132.437 25.5813 130.773 22.808C129.109 19.992 126.869 17.7733 124.053 16.152C121.28 14.488 118.186 13.656 114.773 13.656C111.36 13.656 108.245 14.488 105.429 16.152C102.656 17.7733 100.437 19.992 98.773 22.808C97.109 25.5813 96.277 28.6747 96.277 32.088V65.624C96.277 69.08 97.109 72.216 98.773 75.032C100.437 77.8053 102.656 80.024 105.429 81.688C108.245 83.3093 111.36 84.12 114.773 84.12ZM206.37 95V78.936H164.77V66.264L194.722 2.84H210.018L180.066 66.264H206.37V41.304H219.938V66.264H229.09V78.936H219.938V95H206.37Z" fill="#1A1A1A"/>
</svg>
