<svg width="118" height="105" viewBox="0 0 118 105" fill="none" xmlns="http://www.w3.org/2000/svg">
<path d="M79.4839 35.56C71.1139 35.56 62.5939 35.22 54.6239 33C46.8039 30.83 39.6239 26.62 33.2239 21.75C29.0339 18.58 25.2239 16.05 19.7839 16.43C14.462 16.7179 9.37271 18.7053 5.26392 22.1C-1.65608 28.16 -0.616078 39.39 2.15392 47.25C6.31392 59.12 18.9739 67.39 29.7339 72.74C42.1639 78.95 55.8139 82.56 69.5139 84.63C81.5139 86.46 96.9339 87.78 107.334 79.95C116.884 72.74 119.504 56.3 117.164 45.2C116.596 41.9208 114.85 38.962 112.254 36.88C105.544 31.97 95.5339 35.25 87.9939 35.41C85.1939 35.47 82.3439 35.54 79.4839 35.56Z" fill="#F2F2F2"/>
<path d="M94.0837 82.43H27.5537V38.59L60.8837 15.67L94.0837 38.59V82.43Z" fill="#D2D2D2"/>
<path d="M77.3716 9.03306L29.345 22.0906C27.8315 22.5021 26.9381 24.0627 27.3496 25.5762L38.0459 64.9181C38.4574 66.4316 40.018 67.325 41.5315 66.9135L89.5581 53.8559C91.0717 53.4444 91.965 51.8839 91.5535 50.3703L80.8572 11.0285C80.4457 9.51494 78.8851 8.62156 77.3716 9.03306Z" fill="white" stroke="#BABABA" stroke-linecap="round" stroke-linejoin="round"/>
<path d="M94.0837 82.7H27.5537V38.87L59.1837 58.93L94.0837 38.87V82.7Z" fill="white" stroke="#BABABA" stroke-linecap="round" stroke-linejoin="round"/>
<path d="M27.5537 82.7L58.9337 52.7C59.5255 52.1246 60.3183 51.8026 61.1437 51.8026C61.9691 51.8026 62.762 52.1246 63.3537 52.7L94.0837 82.7H27.5537Z" fill="white" stroke="#BABABA" stroke-linecap="round" stroke-linejoin="round"/>
<path d="M92.854 24.16C93.3953 24.16 93.834 23.7212 93.834 23.18C93.834 22.6387 93.3953 22.2 92.854 22.2C92.3128 22.2 91.874 22.6387 91.874 23.18C91.874 23.7212 92.3128 24.16 92.854 24.16Z" fill="#CFCFCF"/>
<path d="M22.5239 74.3001C23.0652 74.3001 23.5039 73.8613 23.5039 73.3201C23.5039 72.7789 23.0652 72.3401 22.5239 72.3401C21.9827 72.3401 21.5439 72.7789 21.5439 73.3201C21.5439 73.8613 21.9827 74.3001 22.5239 74.3001Z" fill="#CFCFCF"/>
<path d="M109.254 22.7V27.0099" stroke="#BABABA" stroke-linecap="round" stroke-linejoin="round"/>
<path d="M107.104 24.86H111.404" stroke="#BABABA" stroke-linecap="round" stroke-linejoin="round"/>
<path d="M103.434 90.02V94.32" stroke="#BABABA" stroke-linecap="round" stroke-linejoin="round"/>
<path d="M101.284 92.17H105.584" stroke="#BABABA" stroke-linecap="round" stroke-linejoin="round"/>
<path d="M20.9541 1V5.3" stroke="#BABABA" stroke-linecap="round" stroke-linejoin="round"/>
<path d="M18.8037 3.15002H23.1037" stroke="#BABABA" stroke-linecap="round" stroke-linejoin="round"/>
<path d="M59.4043 104.09C79.6787 104.09 96.1143 103.065 96.1143 101.8C96.1143 100.535 79.6787 99.51 59.4043 99.51C39.13 99.51 22.6943 100.535 22.6943 101.8C22.6943 103.065 39.13 104.09 59.4043 104.09Z" fill="#F2F2F2"/>
<path d="M79.9835 21.22C85.0148 21.22 89.0935 17.1413 89.0935 12.11C89.0935 7.07869 85.0148 3 79.9835 3C74.9522 3 70.8735 7.07869 70.8735 12.11C70.8735 17.1413 74.9522 21.22 79.9835 21.22Z" fill="#D2D2D2"/>
<path d="M76.02 8.14758L83.9373 16.0727" stroke="white" stroke-width="1.1" stroke-linecap="round" stroke-linejoin="round"/>
<path d="M83.9373 8.14758L76.02 16.0727" stroke="white" stroke-width="1.1" stroke-linecap="round" stroke-linejoin="round"/>
</svg>
