<svg width="572" height="379" viewBox="0 0 572 379" fill="none" xmlns="http://www.w3.org/2000/svg">
<path d="M289.765 106.522C284.674 98.1048 278.641 89.1178 269.193 86.3694C258.251 83.1865 247.011 89.5094 237.477 95.7487C208.965 114.409 181.508 134.631 155.23 156.322L155.259 156.649C175.717 155.238 196.175 153.828 216.633 152.418C231.414 151.399 246.703 150.24 259.765 143.25C264.721 140.598 269.553 137.055 275.17 136.809C282.148 136.502 288.233 141.373 293.014 146.463C321.299 176.57 329.484 222.611 361.217 249.062C341.207 199.735 317.315 152.072 289.765 106.522Z" fill="#F2F2F2"/>
<path d="M463.626 361.885C460.499 357.937 459.22 357.012 456.135 353.028C431.013 320.549 407.4 286.974 385.297 252.302C370.283 228.754 356.014 204.753 342.49 180.301C336.051 168.676 329.789 156.96 323.703 145.152C318.981 135.997 314.364 126.787 309.852 117.522C308.562 114.876 307.308 112.218 306.061 109.553C303.121 103.287 300.236 96.9914 297.139 90.8108C293.609 83.7665 289.313 76.3815 282.831 71.6487C279.882 69.4065 276.354 68.0498 272.662 67.7373C267.386 67.3966 262.517 69.5744 257.941 71.9529C224.457 89.4056 193.109 111.287 164.756 136.186C136.33 161.14 110.921 189.333 89.049 220.189C88.3799 221.144 86.7975 220.231 87.4729 219.27C90.1324 215.511 92.8447 211.792 95.6096 208.113C129.99 162.408 172.145 123.103 220.148 91.9971C228.224 86.7655 236.452 81.7793 244.832 77.0384C249.055 74.6477 253.297 72.2875 257.612 70.0732C261.842 67.9015 266.333 65.9488 271.165 65.8758C287.609 65.6203 296.123 84.2349 301.971 96.7602C303.809 100.702 305.669 104.632 307.552 108.549C314.666 123.423 322.054 138.16 329.716 152.762C334.444 161.778 339.277 170.74 344.212 179.65C359.572 207.396 375.898 234.579 393.19 261.201C416.097 296.466 438.821 327.618 464.917 360.595C465.635 361.508 464.351 362.809 463.626 361.885Z" fill="#E4E4E4"/>
<path d="M163.13 126.994C162.175 125.929 161.225 124.865 160.264 123.8C152.681 115.417 144.544 107.132 134.131 102.326C129.166 99.9626 123.747 98.7068 118.248 98.646C112.564 98.6643 107.007 100.155 101.755 102.241C99.2724 103.233 96.8441 104.358 94.4526 105.557C91.7199 106.931 89.036 108.397 86.3646 109.876C81.3498 112.65 76.4001 115.545 71.5154 118.562C61.7964 124.567 52.3817 131.029 43.2714 137.95C38.5487 141.539 33.9235 145.245 29.3958 149.07C25.1845 152.622 21.0584 156.27 17.0175 160.013C16.1533 160.81 14.8631 159.521 15.7272 158.724C16.7922 157.732 17.8694 156.747 18.9466 155.773C21.9895 153.024 25.081 150.327 28.2214 147.683C33.9479 142.853 39.8226 138.209 45.8457 133.752C55.2117 126.817 64.9002 120.353 74.911 114.359C79.9137 111.366 84.9851 108.499 90.1254 105.757C91.6774 104.93 93.2476 104.121 94.8359 103.354C98.4399 101.537 102.185 100.014 106.034 98.7981C111.486 97.035 117.255 96.4686 122.946 97.1374C128.441 97.9364 133.735 99.7672 138.55 102.533C148.774 108.245 156.703 117.078 164.42 125.698C165.199 126.574 163.915 127.87 163.13 126.994Z" fill="#E4E4E4"/>
<path d="M372.618 213.86L397.117 204.904L409.281 200.456C413.243 199.008 417.195 197.359 421.29 196.322C424.849 195.306 428.628 195.354 432.16 196.46C435.309 197.626 438.193 199.412 440.638 201.714C443.136 204.013 445.46 206.494 447.592 209.137C450.24 212.318 452.849 215.533 455.47 218.737C466.287 231.96 477.033 245.241 487.709 258.579C498.384 271.917 508.988 285.311 519.52 298.762C530.079 312.246 540.564 325.787 550.977 339.384C552.253 341.049 553.527 342.716 554.801 344.383C555.504 345.304 557.091 344.396 556.377 343.462C545.887 329.728 535.324 316.051 524.688 302.43C514.026 288.776 503.29 275.181 492.481 261.643C481.671 248.105 470.789 234.626 459.833 221.206C457.104 217.863 454.37 214.523 451.632 211.187C449.322 208.373 447.038 205.529 444.504 202.909C439.854 198.102 434.044 193.853 427.089 193.738C423 193.67 419.042 194.967 415.243 196.341C411.147 197.822 407.061 199.331 402.971 200.826L378.3 209.846L372.133 212.101C371.038 212.501 371.511 214.265 372.618 213.86Z" fill="#E4E4E4"/>
<path d="M130.909 112.874C118.459 106.478 102.515 107.731 91.0742 115.722C112.896 119.485 134.48 124.52 155.714 130.802C146.896 125.637 139.999 117.544 130.909 112.874Z" fill="#F2F2F2"/>
<path d="M90.9515 115.7L88.5547 117.647C89.3654 116.966 90.2082 116.327 91.074 115.722C91.0331 115.715 90.9924 115.707 90.9515 115.7Z" fill="#F2F2F2"/>
<path d="M439.713 213.95C437.301 211.016 434.694 207.943 431.087 206.751L427.719 206.884C453.355 252.166 487.979 291.733 529.466 323.156C499.548 286.754 469.63 250.352 439.713 213.95Z" fill="#F2F2F2"/>
<path d="M431.505 67.6847C450.203 67.6847 465.361 52.533 465.361 33.8424C465.361 15.1517 450.203 0 431.505 0C412.806 0 397.648 15.1517 397.648 33.8424C397.648 52.533 412.806 67.6847 431.505 67.6847Z" fill="#FEDDBD"/>
<path d="M492.604 7.87688C476.195 5.65992 457.462 14.525 453.21 30.5204C452.138 27.6765 450.189 25.2467 447.646 23.5821C445.102 21.9175 442.095 21.1044 439.058 21.2601C436.022 21.4159 433.114 22.5325 430.754 24.4485C428.394 26.3646 426.705 28.981 425.93 31.9197L427.808 33.2646C462.971 40.8653 499.37 40.7008 534.462 32.7826C523.048 20.7925 509.012 10.0938 492.604 7.87688Z" fill="#F0F0F0"/>
<path d="M422.236 53.0001C405.828 50.7831 387.095 59.6482 382.843 75.6436C381.771 72.7996 379.822 70.3698 377.279 68.7053C374.735 67.0407 371.728 66.2276 368.691 66.3833C365.655 66.5391 362.747 67.6556 360.387 69.5717C358.027 71.4878 356.337 74.1042 355.562 77.0429L357.441 78.3877C392.604 85.9885 429.002 85.824 464.095 77.9057C452.681 65.9156 438.645 55.217 422.236 53.0001Z" fill="#F0F0F0"/>
<path d="M565.445 61.5322C565.377 61.5323 565.31 61.5218 565.245 61.5011C389.718 6.0141 235.016 13.27 136.144 29.1278C122.689 31.2851 109.198 33.7767 96.0452 36.534C92.6873 37.2371 89.2037 37.9908 85.6913 38.7756C81.4965 39.7094 77.3575 40.671 73.3886 41.6327C71.6746 42.0384 69.994 42.4473 68.3469 42.8594C65.8519 43.475 63.3203 44.1166 60.6066 44.8216C57.5742 45.6031 54.4931 46.4229 51.4472 47.2582C51.436 47.2621 51.4246 47.2653 51.4131 47.2679L51.4134 47.2685C47.973 48.2075 44.5506 49.1737 41.2411 50.1386C39.4498 50.6558 37.7202 51.1658 36.0635 51.6693C35.8784 51.7205 35.7144 51.7697 35.5481 51.8203L35.1922 51.9285C34.986 51.9913 34.7825 52.0529 34.5789 52.1112L34.5659 52.1151L34.5662 52.1158L34.0275 52.283C33.3851 52.4774 32.7582 52.6673 32.1416 52.8565C15.8474 57.8774 6.88997 61.4493 6.80148 61.4843C6.72056 61.5167 6.63405 61.5329 6.54687 61.5319C6.4597 61.5309 6.37358 61.5127 6.29342 61.4784C6.21327 61.4442 6.14064 61.3945 6.07971 61.3322C6.01877 61.2698 5.97071 61.1961 5.93828 61.1152C5.90584 61.0343 5.88967 60.9479 5.89067 60.8607C5.89167 60.7736 5.90983 60.6875 5.94411 60.6074C5.9784 60.5273 6.02813 60.4547 6.09047 60.3938C6.15282 60.3328 6.22656 60.2848 6.30748 60.2524C6.39662 60.2174 15.3979 56.6273 31.7514 51.5877C32.3702 51.3978 32.9987 51.2079 33.6431 51.0129L34.1436 50.8573C34.1607 50.8509 34.1779 50.8457 34.1954 50.8405C34.398 50.7828 34.6003 50.7213 34.8058 50.6591L35.1624 50.5508C35.34 50.4971 35.515 50.4439 35.6943 50.3947C37.3396 49.8944 39.0751 49.3831 40.8709 48.864C44.1817 47.8985 47.6073 46.9323 51.0504 45.992C51.0611 45.9881 51.0721 45.9855 51.0828 45.9823C54.1395 45.1444 57.2319 44.3207 60.274 43.5366C62.992 42.8309 65.5284 42.1881 68.0276 41.5712C69.6817 41.1597 71.3655 40.7499 73.0791 40.3419C77.0525 39.3789 81.1999 38.4159 85.4022 37.4802C88.9201 36.6948 92.4096 35.9392 95.7729 35.2354C108.946 32.4736 122.458 29.978 135.934 27.8175C234.947 11.937 389.871 4.66944 565.645 60.2361C565.796 60.2838 565.925 60.384 566.009 60.5186C566.093 60.6531 566.125 60.8132 566.101 60.9697C566.077 61.1263 565.998 61.2691 565.877 61.3723C565.757 61.4755 565.604 61.5322 565.445 61.5322Z" fill="#CCCCCC"/>
</svg>